<svg viewBox="0 0 400 100" xmlns="http://www.w3.org/2000/svg">
  <defs>
    <linearGradient id="flameGradient" x1="0%" y1="0%" x2="100%" y2="100%">
      <stop offset="0%" stop-color="#5b77ff"/>
      <stop offset="50%" stop-color="#7c3aed"/>
      <stop offset="100%" stop-color="#14b8a6"/>
    </linearGradient>
    <linearGradient id="textGradient" x1="0%" y1="0%" x2="100%" y2="0%">
      <stop offset="0%" stop-color="#d8b4fe"/>
      <stop offset="100%" stop-color="#60a5fa"/>
    </linearGradient>
  </defs>
  <g transform="translate(20, 10)">
    <path d="M45 10 C 35 30, 28 55, 45 70 C 50 80, 65 90, 65 70 C 70 40, 50 40, 55 20 C 55 10, 45 0, 45 10 Z" fill="url(#flameGradient)" opacity="0.95"/>
    <path d="M57 18 C 62 30, 62 43, 55 58 C 52 68, 47 75, 50 64 C 55 50, 58 40, 57 18 Z" fill="#5b77ff" opacity="0.8"/>
    <path d="M45 24 C 42 32, 37 43, 45 56 C 48 65, 50 72, 48 60 C 45 48, 45 36, 45 24 Z" fill="#c084fc" opacity="0.85"/>
  </g>
  <text x="120" y="60" font-family="Inter, sans-serif" font-size="44" font-weight="700" fill="url(#textGradient)">Lab</text>
  <text x="190" y="60" font-family="Inter, sans-serif" font-size="44" font-weight="500" fill="#e0f2fe">Scentique</text>
</svg>